<svg width="12" height="12" viewBox="0 0 12 12" fill="none" xmlns="http://www.w3.org/2000/svg">
<g clip-path="url(#clip0_21_8)">
<path d="M7.81 5.61001C7.74767 5.5468 7.66279 5.51093 7.57402 5.51031C7.48526 5.50968 7.39988 5.54435 7.33667 5.60667C7.27346 5.669 7.23759 5.75388 7.23697 5.84265C7.23634 5.93142 7.27101 6.0168 7.33333 6.08001L8.57333 7.33334H2.61C2.52159 7.33334 2.43681 7.36846 2.3743 7.43097C2.31178 7.49348 2.27666 7.57827 2.27666 7.66667C2.27666 7.75508 2.31178 7.83986 2.3743 7.90237C2.43681 7.96489 2.52159 8.00001 2.61 8.00001H8.57333L7.33333 9.23334C7.30247 9.26442 7.27803 9.30127 7.26142 9.3418C7.2448 9.38232 7.23633 9.42572 7.23648 9.46952C7.23663 9.51332 7.24542 9.55665 7.26232 9.59706C7.27922 9.63746 7.30392 9.67414 7.335 9.70501C7.36608 9.73587 7.40293 9.7603 7.44346 9.77692C7.48398 9.79354 7.52738 9.80201 7.57118 9.80186C7.61498 9.8017 7.65831 9.79292 7.69872 9.77602C7.73912 9.75912 7.7758 9.73442 7.80667 9.70334L9.84333 7.66667L7.81 5.61001Z" fill="#AAAAAA"/>
<path d="M4.41333 6.15C4.47954 6.15039 4.54436 6.13104 4.59954 6.09444C4.65471 6.05784 4.69773 6.00564 4.72312 5.94449C4.74851 5.88335 4.75512 5.81602 4.74209 5.75111C4.72907 5.68619 4.69701 5.62662 4.65 5.58L3.41333 4.33333H9.37333C9.46174 4.33333 9.54652 4.29821 9.60904 4.2357C9.67155 4.17319 9.70667 4.08841 9.70667 4C9.70667 3.91159 9.67155 3.82681 9.60904 3.7643C9.54652 3.70179 9.46174 3.66667 9.37333 3.66667H3.41333L4.65 2.42333C4.68086 2.39225 4.7053 2.3554 4.72192 2.31488C4.73853 2.27435 4.74701 2.23095 4.74685 2.18715C4.7467 2.14336 4.73792 2.10002 4.72101 2.05961C4.70411 2.01921 4.67941 1.98253 4.64833 1.95167C4.61725 1.92081 4.5804 1.89637 4.53988 1.87975C4.49935 1.86313 4.45595 1.85466 4.41215 1.85481C4.3237 1.85513 4.23899 1.89057 4.17667 1.95333L2.14 4L4.17667 6.04667C4.20726 6.07877 4.24395 6.10444 4.28459 6.12218C4.32522 6.13993 4.36899 6.14938 4.41333 6.15Z" fill="#AAAAAA"/>
</g>
<defs>
<clipPath id="clip0_21_8">
<rect width="12" height="12" fill="white"/>
</clipPath>
</defs>
</svg>
