<svg width="80" height="80" viewBox="0 0 80 80" fill="none" xmlns="http://www.w3.org/2000/svg">
<path d="M66.6667 26.6667L40 43.3333L13.3333 26.6667V20L40 36.6667L66.6667 20M66.6667 13.3333H13.3333C9.63332 13.3333 6.66666 16.3 6.66666 20V60C6.66666 61.7681 7.36904 63.4638 8.61928 64.714C9.86952 65.9643 11.5652 66.6667 13.3333 66.6667H66.6667C68.4348 66.6667 70.1305 65.9643 71.3807 64.714C72.6309 63.4638 73.3333 61.7681 73.3333 60V20C73.3333 18.2319 72.6309 16.5362 71.3807 15.2859C70.1305 14.0357 68.4348 13.3333 66.6667 13.3333Z" fill="white"/>
</svg>
