<svg width="15" height="15" viewBox="0 0 15 15" fill="none" xmlns="http://www.w3.org/2000/svg">
<g clip-path="url(#clip0_8_2)">
<path d="M15 11.25C15 11.692 14.8244 12.1159 14.5118 12.4285C14.1993 12.7411 13.7754 12.9167 13.3333 12.9167H10V2.08333H13.3333C13.7754 2.08333 14.1993 2.25892 14.5118 2.57148C14.8244 2.88404 15 3.30797 15 3.74999V11.25Z" fill="#ED2939"/>
<path d="M1.66667 2.08333C1.22464 2.08333 0.800716 2.25892 0.488155 2.57148C0.175595 2.88404 0 3.30797 0 3.74999L0 11.25C0 11.692 0.175595 12.1159 0.488155 12.4285C0.800716 12.7411 1.22464 12.9167 1.66667 12.9167H5V2.08333H1.66667Z" fill="#002495"/>
<path d="M5 2.08333H10V12.9167H5V2.08333Z" fill="#EEEEEE"/>
</g>
<defs>
<clipPath id="clip0_8_2">
<rect width="15" height="15" fill="white"/>
</clipPath>
</defs>
</svg>
