<svg width="80" height="80" viewBox="0 0 80 80" fill="none" xmlns="http://www.w3.org/2000/svg">
<g clip-path="url(#clip0_15_6)">
<path d="M40 18.3333C43.0942 18.3333 46.0617 19.5625 48.2496 21.7504C50.4375 23.9383 51.6667 26.9058 51.6667 30C51.6667 33.0942 50.4375 36.0616 48.2496 38.2496C46.0617 40.4375 43.0942 41.6667 40 41.6667C36.9058 41.6667 33.9383 40.4375 31.7504 38.2496C29.5625 36.0616 28.3333 33.0942 28.3333 30C28.3333 26.9058 29.5625 23.9383 31.7504 21.7504C33.9383 19.5625 36.9058 18.3333 40 18.3333ZM16.6667 26.6667C18.5333 26.6667 20.2667 27.1667 21.7667 28.0667C21.2667 32.8333 22.6667 37.5667 25.5333 41.2667C23.8667 44.4667 20.5333 46.6667 16.6667 46.6667C14.0145 46.6667 11.471 45.6131 9.5956 43.7377C7.72024 41.8624 6.66667 39.3188 6.66667 36.6667C6.66667 34.0145 7.72024 31.471 9.5956 29.5956C11.471 27.7202 14.0145 26.6667 16.6667 26.6667ZM63.3333 26.6667C65.9855 26.6667 68.529 27.7202 70.4044 29.5956C72.2798 31.471 73.3333 34.0145 73.3333 36.6667C73.3333 39.3188 72.2798 41.8624 70.4044 43.7377C68.529 45.6131 65.9855 46.6667 63.3333 46.6667C59.4667 46.6667 56.1333 44.4667 54.4667 41.2667C57.3729 37.5147 58.7219 32.7873 58.2333 28.0667C59.7333 27.1667 61.4667 26.6667 63.3333 26.6667ZM18.3333 60.8333C18.3333 53.9333 28.0333 48.3333 40 48.3333C51.9667 48.3333 61.6667 53.9333 61.6667 60.8333V66.6667H18.3333V60.8333ZM0 66.6667V61.6667C0 57.0333 6.3 53.1333 14.8333 52C12.8667 54.2667 11.6667 57.4 11.6667 60.8333V66.6667H0ZM80 66.6667H68.3333V60.8333C68.3333 57.4 67.1333 54.2667 65.1667 52C73.7 53.1333 80 57.0333 80 61.6667V66.6667Z" fill="black"/>
</g>
<defs>
<clipPath id="clip0_15_6">
<rect width="80" height="80" fill="white"/>
</clipPath>
</defs>
</svg>
