<svg width="80" height="80" viewBox="0 0 80 80" fill="none" xmlns="http://www.w3.org/2000/svg">
<path d="M63.3333 39.8333C63.3333 33.3333 61.0689 27.82 56.54 23.2933C52.0111 18.7667 46.4978 16.5022 40 16.5V9.83333C44.1667 9.83333 48.07 10.6256 51.71 12.21C55.35 13.7944 58.5167 15.9333 61.21 18.6267C63.9033 21.32 66.0422 24.4867 67.6267 28.1267C69.2111 31.7667 70.0022 35.6689 70 39.8333H63.3333ZM50 39.8333C50 37.0555 49.0278 34.6944 47.0833 32.75C45.1389 30.8056 42.7778 29.8333 40 29.8333V23.1667C44.6111 23.1667 48.5422 24.7922 51.7933 28.0433C55.0444 31.2944 56.6689 35.2244 56.6667 39.8333H50ZM66.5 70C59.3333 70 52.3467 68.4022 45.54 65.2067C38.7333 62.0111 32.7056 57.7889 27.4567 52.54C22.2078 47.2911 17.9856 41.2633 14.79 34.4567C11.5944 27.65 9.99778 20.6644 10 13.5C10 12.5 10.3333 11.6667 11 11C11.6667 10.3333 12.5 9.99999 13.5 9.99999H27C27.7778 9.99999 28.4722 10.25 29.0833 10.75C29.6944 11.25 30.0556 11.8889 30.1667 12.6667L32.3333 24.3333C32.4444 25.1111 32.43 25.82 32.29 26.46C32.15 27.1 31.8311 27.6689 31.3333 28.1667L23.3333 36.3333C25.6667 40.3333 28.5833 44.0833 32.0833 47.5833C35.5833 51.0833 39.4444 54.1111 43.6667 56.6667L51.5 48.8333C52 48.3333 52.6533 47.9589 53.46 47.71C54.2667 47.4611 55.0578 47.3911 55.8333 47.5L67.3333 49.8333C68.1111 50 68.75 50.3756 69.25 50.96C69.75 51.5444 70 52.2244 70 53V66.5C70 67.5 69.6667 68.3333 69 69C68.3333 69.6667 67.5 70 66.5 70Z" fill="white"/>
</svg>
