<svg width="80" height="80" viewBox="0 0 80 80" fill="none" xmlns="http://www.w3.org/2000/svg">
<path d="M40 6.66667C27.1 6.66667 16.6667 17.1 16.6667 30C16.6667 47.5 40 73.3333 40 73.3333C40 73.3333 63.3333 47.5 63.3333 30C63.3333 17.1 52.9 6.66667 40 6.66667ZM40 38.3333C37.7899 38.3333 35.6703 37.4554 34.1074 35.8926C32.5446 34.3298 31.6667 32.2101 31.6667 30C31.6667 27.7899 32.5446 25.6703 34.1074 24.1074C35.6703 22.5446 37.7899 21.6667 40 21.6667C42.2101 21.6667 44.3298 22.5446 45.8926 24.1074C47.4554 25.6703 48.3333 27.7899 48.3333 30C48.3333 32.2101 47.4554 34.3298 45.8926 35.8926C44.3298 37.4554 42.2101 38.3333 40 38.3333Z" fill="black"/>
</svg>
