<svg width="15" height="15" viewBox="0 0 15 15" fill="none" xmlns="http://www.w3.org/2000/svg">
<g clip-path="url(#clip0_8_15)">
<path d="M8.90628 12.6562H12.6563C13.1196 12.6562 13.5134 12.5517 13.8403 12.3696L8.90628 9.42633V12.6562ZM14.9203 10.8305C14.9738 10.5921 15.001 10.3397 15.001 10.0779V8.90602H11.6939L14.9194 10.8305M0.0820591 4.16227C0.0265131 4.41162 -0.00100134 4.66641 2.7834e-05 4.92188V6.09375H3.31972L0.0820591 4.16227ZM6.09378 2.34375H2.34378C1.8837 2.34375 1.49253 2.44688 1.16698 2.62641L6.09378 5.56547V2.34375ZM1.18198 12.3811C1.50448 12.5555 1.8905 12.6562 2.34378 12.6562H6.09378V9.45094L1.18198 12.3811ZM2.7834e-05 8.90625V10.0781C2.7834e-05 10.3479 0.0286216 10.6078 0.085106 10.8523L3.34737 8.90625H2.7834e-05ZM13.8551 2.63789C13.5256 2.45086 13.1264 2.34375 12.6563 2.34375H8.90628V5.59008L13.8551 2.63789ZM15 6.09375V4.92188C15 4.66547 14.9735 4.4182 14.9222 4.1843L11.7216 6.09375H15Z" fill="#2E3192"/>
<path d="M11.7216 6.09375L14.9222 4.1843C14.7755 3.51305 14.4183 2.95734 13.8551 2.63789L8.90625 5.59008V2.34375H8.4375V6.5625H15V6.09375H11.7216ZM0 8.4375V8.90625H3.34734L0.0850781 10.8523C0.24 11.5214 0.607969 12.0708 1.18195 12.3811L6.09375 9.45094V12.6562H6.5625V8.4375H0ZM15 8.4375H8.4375V12.6562H8.90625V9.42633L13.8403 12.3698C14.4077 12.0539 14.7694 11.5013 14.9194 10.8309L11.6939 8.90625H15V8.4375ZM6.09375 2.34375V5.56547L1.16695 2.62641C0.597422 2.94047 0.233438 3.49219 0.0817969 4.16227L3.31969 6.09375H0V6.5625H6.5625V2.34375H6.09375Z" fill="#E6E7E8"/>
<path d="M8.4375 6.5625V2.34375H6.5625V6.5625H0V8.4375H6.5625V12.6562H8.4375V8.4375H15V6.5625H8.4375Z" fill="#BE1E2D"/>
<path d="M5.14172 6.09375L0.4425 3.28852C0.341484 3.43852 0.260391 3.60352 0.193359 3.7793L4.07156 6.09375H5.14102M14.7867 11.2711L10.8462 8.90625H9.75492L14.5158 11.7701C14.6262 11.6158 14.7172 11.4485 14.7867 11.272M14.231 2.90414L8.89899 6.09375L9.98156 6.09446L14.5826 3.33985C14.4799 3.15305 14.3716 3.03258 14.231 2.90414ZM0.424922 11.6895C0.530351 11.85 0.657228 11.9954 0.802031 12.1216L6.10852 8.90625H5.03906L0.424922 11.6895Z" fill="#BE1E2D"/>
</g>
<defs>
<clipPath id="clip0_8_15">
<rect width="15" height="15" fill="white"/>
</clipPath>
</defs>
</svg>
